<svg xmlns="http://www.w3.org/2000/svg" viewBox="0 0 500 500"><g id="freepik--background-complete--inject-2"><rect y="382.4" width="500" height="0.25" style="fill:#ebebeb"></rect><rect x="416.78" y="398.49" width="33.12" height="0.25" style="fill:#ebebeb"></rect><rect x="322.53" y="401.21" width="8.69" height="0.25" style="fill:#ebebeb"></rect><rect x="396.59" y="389.21" width="19.19" height="0.25" style="fill:#ebebeb"></rect><rect x="52.46" y="390.89" width="43.19" height="0.25" style="fill:#ebebeb"></rect><rect x="104.56" y="390.89" width="6.33" height="0.25" style="fill:#ebebeb"></rect><rect x="131.47" y="395.11" width="93.68" height="0.25" style="fill:#ebebeb"></rect><path d="M237,337.8H43.91a5.71,5.71,0,0,1-5.7-5.71V60.66A5.71,5.71,0,0,1,43.91,55H237a5.71,5.71,0,0,1,5.71,5.71V332.09A5.71,5.71,0,0,1,237,337.8ZM43.91,55.2a5.46,5.46,0,0,0-5.45,5.46V332.09a5.46,5.46,0,0,0,5.45,5.46H237a5.47,5.47,0,0,0,5.46-5.46V60.66A5.47,5.47,0,0,0,237,55.2Z" style="fill:#ebebeb"></path><path d="M453.31,337.8H260.21a5.72,5.72,0,0,1-5.71-5.71V60.66A5.72,5.72,0,0,1,260.21,55h193.1A5.71,5.71,0,0,1,459,60.66V332.09A5.71,5.71,0,0,1,453.31,337.8ZM260.21,55.2a5.47,5.47,0,0,0-5.46,5.46V332.09a5.47,5.47,0,0,0,5.46,5.46h193.1a5.47,5.47,0,0,0,5.46-5.46V60.66a5.47,5.47,0,0,0-5.46-5.46Z" style="fill:#ebebeb"></path><polygon points="459.02 382.56 459.02 371.6 448.41 371.6 448.41 322.69 439.97 322.69 439.97 306.27 433.34 306.27 433.34 277.57 426.78 277.57 426.78 244.44 424.41 244.44 424.41 277.57 420.64 277.57 420.64 270.81 414.24 270.81 414.24 277.57 409.45 277.57 409.45 306.27 397.79 306.27 397.79 281.52 392.6 281.52 392.6 276.94 386.96 276.94 386.96 281.52 379.57 281.52 379.57 306.27 367.9 306.27 367.9 346.3 348.15 346.3 348.15 336.24 343.97 336.24 343.97 359.94 338.7 359.94 338.7 351.97 331.22 351.97 331.22 344.55 336.58 344.55 336.58 342.52 331.22 342.52 331.22 333.47 326.87 333.47 326.87 298.43 324.19 298.43 324.19 280.47 321.18 280.47 321.18 298.43 315.48 298.43 315.48 333.47 291.22 333.47 291.22 358.27 276.71 358.27 276.71 348.17 268.98 348.17 268.98 321.75 265.64 321.75 265.64 348.17 263.79 348.17 263.79 370.48 251.66 370.48 251.66 358.05 246.79 358.05 246.79 346.43 245.59 346.43 245.59 358.05 238.74 358.05 238.74 348.66 223.73 348.66 223.73 344.19 218.43 344.19 218.43 333.47 215.92 333.47 215.92 344.19 204.14 344.19 204.14 358.05 197.04 358.05 197.04 343.63 177.46 343.63 177.46 358.05 171.66 358.05 171.66 351.22 160.14 351.22 160.14 304.07 157.77 304.07 157.77 351.22 152.07 351.22 152.07 358.05 149.16 358.05 149.16 331.1 143.53 331.1 143.53 320.51 120.63 320.51 120.63 326.61 111.09 326.61 111.09 358.05 104 358.05 104 325.81 84.41 325.81 84.41 358.05 78.61 358.05 78.61 336.61 59.03 336.61 59.03 358.05 56.11 358.05 56.11 307.96 45.88 307.96 45.88 358.05 42.25 358.05 42.25 371.6 35.66 371.6 35.66 382.56 459.02 382.56" style="fill:#f5f5f5"></polygon><circle cx="112.98" cy="112.93" r="27.79" transform="translate(-32.84 178.14) rotate(-69.08)" style="fill:#ebebeb"></circle><path d="M240.13,83.4a4.84,4.84,0,0,0-6.22-4.63,10.21,10.21,0,0,0-10.12-11.71,9.74,9.74,0,0,0-1.88.18,8.94,8.94,0,0,0-16.58,4.52h-.15a8.24,8.24,0,0,0,0,16.48h30.25A4.82,4.82,0,0,0,240.13,83.4Z" style="fill:#ebebeb"></path><path d="M209.67,234.76a4.83,4.83,0,0,0-4.83-4.83,4.92,4.92,0,0,0-1.39.2,10.21,10.21,0,0,0-10.12-11.71,9.74,9.74,0,0,0-1.88.18,8.94,8.94,0,0,0-16.58,4.52h-.15a8.24,8.24,0,0,0,0,16.48H205A4.82,4.82,0,0,0,209.67,234.76Z" style="fill:#ebebeb"></path><path d="M447.87,146.15a4.83,4.83,0,0,0-6.21-4.63,10.28,10.28,0,0,0-10.12-11.71,9.77,9.77,0,0,0-1.89.18,8.94,8.94,0,0,0-16.58,4.52h-.14a8.24,8.24,0,0,0,0,16.48h30.25A4.82,4.82,0,0,0,447.87,146.15Z" style="fill:#ebebeb"></path><path d="M86.12,186.47A4.83,4.83,0,0,1,91,181.64a4.54,4.54,0,0,1,1.39.21,10.45,10.45,0,0,1-.11-1.49,10.23,10.23,0,0,1,10.23-10.23,10.71,10.71,0,0,1,1.89.18,8.93,8.93,0,0,1,16.57,4.52h.15a8.24,8.24,0,0,1,0,16.48H90.82A4.84,4.84,0,0,1,86.12,186.47Z" style="fill:#ebebeb"></path><path d="M94.27,260.79a3,3,0,0,0-3-3,3,3,0,0,0-.86.12,6.88,6.88,0,0,0,.06-.92,6.36,6.36,0,0,0-6.36-6.36,6.45,6.45,0,0,0-1.17.11,5.55,5.55,0,0,0-10.3,2.81h-.1a5.12,5.12,0,0,0,0,10.24H91.35A3,3,0,0,0,94.27,260.79Z" style="fill:#ebebeb"></path><path d="M350.11,93.09a3,3,0,0,1,3-3,3.16,3.16,0,0,1,.87.13,5.62,5.62,0,0,1-.07-.92,6.36,6.36,0,0,1,6.36-6.36,6.45,6.45,0,0,1,1.17.11,5.56,5.56,0,0,1,10.31,2.81h.09a5.13,5.13,0,0,1,0,10.25H353A3,3,0,0,1,350.11,93.09Z" style="fill:#ebebeb"></path><path d="M108.54,99.44c-27.19,9-47.53,21.37-45.43,27.74.93,2.81,6.07,4,13.87,3.63-2.16-.48-3.55-1.33-4-2.55-1.73-5.26,15-15.5,37.47-22.88s42-9.1,43.72-3.84c.41,1.23-.21,2.73-1.66,4.4,6.48-4.35,9.93-8.35,9-11.16C159.47,88.41,135.73,90.5,108.54,99.44Z" style="fill:#f5f5f5"></path></g><g id="freepik--Shadow--inject-2"><ellipse id="freepik--path--inject-2" cx="250" cy="416.24" rx="193.89" ry="11.32" style="fill:#f5f5f5"></ellipse></g><g id="freepik--Globe--inject-2"><rect x="312.84" y="356.33" width="8" height="58.77" style="fill:#89264F"></rect><path d="M326.75,392.44l-.68-3.68H307.62l-.68,3.68a6.15,6.15,0,0,1-6,5h0v11.62h31.88V397.45h0A6.14,6.14,0,0,1,326.75,392.44Z" style="fill:#89264F"></path><path d="M326.75,392.44l-.68-3.68H307.62l-.68,3.68a6.15,6.15,0,0,1-6,5h0v11.62h31.88V397.45h0A6.14,6.14,0,0,1,326.75,392.44Z" style="fill:#fff;opacity:0.5"></path><path d="M355.86,412.1h-78l8.11-12a6.37,6.37,0,0,1,5.28-2.8h51.25a6.37,6.37,0,0,1,5.28,2.8Z" style="fill:#89264F"></path><path d="M355.86,412.1h-78l8.11-12a6.37,6.37,0,0,1,5.28-2.8h51.25a6.37,6.37,0,0,1,5.28,2.8Z" style="fill:#fff;opacity:0.30000000000000004"></path><path d="M260.45,408.67H373.24a3.62,3.62,0,0,1,3.62,3.62v3.3a0,0,0,0,1,0,0h-120a0,0,0,0,1,0,0v-3.3A3.62,3.62,0,0,1,260.45,408.67Z" style="fill:#89264F"></path><path d="M260.45,408.67H373.24a3.62,3.62,0,0,1,3.62,3.62v3.3a0,0,0,0,1,0,0h-120a0,0,0,0,1,0,0v-3.3A3.62,3.62,0,0,1,260.45,408.67Z" style="fill:#fff;opacity:0.5"></path><path d="M315.18,360.28a132.8,132.8,0,0,1-68.72-19.11l4.12-6.85A125.75,125.75,0,1,0,380.23,118.81l4.13-6.85a133.72,133.72,0,0,1-69.18,248.32Z" style="fill:#89264F"></path><g style="opacity:0.30000000000000004"><path d="M315.18,360.28a132.8,132.8,0,0,1-68.72-19.11l4.12-6.85A125.75,125.75,0,1,0,380.23,118.81l4.13-6.85a133.72,133.72,0,0,1-69.18,248.32Z" style="fill:#fff"></path></g><rect x="176.2" y="225.06" width="278.41" height="3" transform="translate(-41.35 379.98) rotate(-58.96)" style="fill:#89264F"></rect><path d="M390.69,109.4a4.11,4.11,0,1,1-1.4-5.64A4.11,4.11,0,0,1,390.69,109.4Z" style="fill:#89264F"></path><path d="M247.16,348a4.11,4.11,0,1,1-1.4-5.64A4.11,4.11,0,0,1,247.16,348Z" style="fill:#89264F"></path><g style="opacity:0.30000000000000004"><path d="M390.69,109.4a4.11,4.11,0,1,1-1.4-5.64A4.11,4.11,0,0,1,390.69,109.4Z" style="fill:#fff"></path></g><g style="opacity:0.30000000000000004"><path d="M247.16,348a4.11,4.11,0,1,1-1.4-5.64A4.11,4.11,0,0,1,247.16,348Z" style="fill:#fff"></path></g><path d="M206.87,171.22q2.76-5.4,6-10.4a121.89,121.89,0,0,1,158-42.66c.66.34,1.32.68,2,1a121.5,121.5,0,0,1,34.61,27.56h0a122,122,0,0,1,21.58,124,123.58,123.58,0,0,1-5.11,11.38,121.89,121.89,0,1,1-217.07-111Z" style="fill:#89264F"></path><g style="opacity:0.6000000000000001"><path d="M206.87,171.22q2.76-5.4,6-10.4a121.89,121.89,0,0,1,158-42.66c.66.34,1.32.68,2,1a121.5,121.5,0,0,1,34.61,27.56h0a122,122,0,0,1,21.58,124,123.58,123.58,0,0,1-5.11,11.38,121.89,121.89,0,1,1-217.07-111Z" style="fill:#fff"></path></g><path d="M242,288.62c-2.13-.86-4.34,1.16-5.81,3l-6.62,8.2c2.82,3.68.15,8.06-3.19,10.24a122,122,0,0,1-19.54-138.82q2.76-5.4,6-10.4h.36c3.67.14,4.68,3.87,6.17,6.45.33.58,5.17,7.1,5.71,6.27a32.35,32.35,0,0,0-4,8.71,1,1,0,0,0,0,.71c.27.51,1,.18,1.46-.23,1-1,1.89-2.27,3-3.25a5,5,0,0,1,4-1.45c1.45.26,2.58,1.43,4,1.93a6.07,6.07,0,0,0,5.16-.86,20.1,20.1,0,0,0,3.8-3.57c-.24,4.19,4.72,4.11,5.57,8,.28,1.26.49,3,1.78,3.11s2.23-1.55,3.38-1.12c.81.3.93,1.42.65,2.23a9.16,9.16,0,0,0-.86,2.41,2.23,2.23,0,0,0,2.28,2.25c1.08-.07,1.93-.91,2.87-1.46s2.39-.65,2.87.32a1.72,1.72,0,0,1,.15.74c0,1.84-1.76,3.15-3.44,3.91s-3.57,1.39-4.52,3a1.51,1.51,0,0,0,2.07.58,2.55,2.55,0,0,1,.72-.43c.6-.13,1,.52,1.34,1.05a11,11,0,0,0,6.68,5.13l5.7-9.6c.76.36,1.23.55,1.91-.07,1.22,3.69,2.14,7.46,3.73,11.05a2.29,2.29,0,0,1,.3,1.36c-.11.47-.51.83-.71,1.28-.66,1.48,1.07,2.86,2.53,3.57.3.45-.3,1-.84,1a12.5,12.5,0,0,0-1.6-.14,2.07,2.07,0,0,0-1.4,1.79,5.36,5.36,0,0,0,4.41,6.07,1.56,1.56,0,0,0,1-.11c.65-.35.67-1.24.94-1.92,1.07-2.69,3.51-.66,4.42.7,1.22,1.86.87,4.9.24,6.88-.72,2.32-6.45,17.24-.73,17.74a2.43,2.43,0,0,0,1.5-.49c1.35-.93,2.1-2.49,3.3-3.6s3.4-1.53,4.3-.17c.36.55.41,1.25.73,1.82.88,1.59,3.36,1.52,4.49,3a15.65,15.65,0,0,1,1.05,2.27c.39.74,1.29,1.38,2,1s.8-1.74,1.58-2.27,2,.28,2.08,1.27a2.55,2.55,0,0,1-1.64,2.25,3.36,3.36,0,0,0-1.33.75c-.59.71-.17,1.77.26,2.59.68,1.3,1.37,2.6,2.06,3.9a2.16,2.16,0,0,1-2.28.68c-.82-.18-1.58-.58-2.42-.72-4-.64-6.66,4.46-10.64,1.12a2.45,2.45,0,0,0-1.27-3.71c-1.86-.45-4.15,1.35-5.54,0-.49-.45-.66-1.17-1.17-1.61-1.39-1.2-3.44.83-4.43,1.64-3.27,2.68-1.18,4.29-2.88,7.32-.77,1.39-2.43,2-3.41,3.29s-1.14,2.7-2,3.89c-2.31,3.29-5.87-1.29-7.73-2.77.08,2.59-2.86,4.15-5.4,4.59-3.92.67-3.34.74-5.29,3.63a2.52,2.52,0,0,1-2.32,1.22c-1.59-.22-2.21-2.23-3.55-3.1-.65-.42-1.45-.57-2.06-1-1.62-1.22-1.1-3.71-1.54-5.68a5.54,5.54,0,0,0-3.31-3.87,11.32,11.32,0,0,0-1.44,2.73l2,3.38a7.68,7.68,0,0,1,1.29,3.2,6.18,6.18,0,0,0,.18,1.93c.48,1.19,2,1.43,3.21,1.95,2.86,1.26,6.48,5.34,8.7,7.6,2.36,2.42,2.31,4.95,4.46,7.22a.94.94,0,0,1-.35,1.39,2.13,2.13,0,0,1-1.61,0,5.77,5.77,0,0,1-3-2.26c.93,1.39-4.53,2.56-5.3,2.36-1.26-.34-2.34-2-3.46-2.64-2.79-1.63-4.74-1.92-4.48,2.16.1,1.56.15,3.51-1.23,4.24a2,2,0,0,0-2.53-.24,4.23,4.23,0,0,0-1.6,2.19,2.74,2.74,0,0,0-.19,1.82,4.59,4.59,0,0,1,.36.93c.11,1.08-1.44,1.38-2.51,1.26" style="fill:#89264F;opacity:0.4;isolation:isolate"></path><path d="M401.09,214c-.54-1.13-2.08-1.25-3.33-1.12s-2.7.29-3.55-.63l2-3.9a1.1,1.1,0,0,0,.16-.78,1,1,0,0,0-.62-.52l-2.55-1.18c-1.09.4.36,2.33-.43,3.18-.35.37-.94.3-1.46.31-4.36.06-4.18,5-3.71,7.87.55,3.33-1.27,6.54-3,9.44-.63,1-1.38,2.15-2.56,2.42s-2.31-.38-3.49-.61c-2-.41-4.1.51-6.17.46-7.27-.16-7.86-8.33-3.44-12.23,2.29-2,2.46-1.32,3.3-4.31.36-1.25,1.42-2.38.65-3.76a2.33,2.33,0,0,0-3.95-.06c-.87,1.44-1.94,2.67-2.06,4.38-1.38-1.52-3.62-2.18-5.49-3.15a2.76,2.76,0,0,1-4.69.56c.48-.82.86-2.1,0-2.53a1.5,1.5,0,0,0-.81-.11c-1.16.06-2.31.35-3.47.3-1.79-.08-5.75-2.54-7.4-.94-.29.28-.48.65-.79.92a1.81,1.81,0,0,1-2.35-.17,2.45,2.45,0,0,1-.52-2.41c.16-.55.49-1,.61-1.61.67-3-3.08-2.32-3.92-3.65-.4-.64-.45-6.34-.22-6.9a6.83,6.83,0,0,1-6.06.06c-2-1.18-2.06-3.3-1.48-5.56s1.91-4.94,2.25-6.73c.18-1,.49-2.08,1.41-2.41,1.15-.42,2.56.7,3.58,0a3.18,3.18,0,0,0,.76-.87,4.31,4.31,0,0,1,6-.57c.85-.09,1.34-1,1.77-1.73s1.25-1.52,2-1.18.71,1.75.24,2.62a11.46,11.46,0,0,1-1.79,2.43,3.58,3.58,0,0,0-1.25,1.83,2.9,2.9,0,0,0,.43,1.63,6.62,6.62,0,0,0,2.63,3.08,2.82,2.82,0,0,0,3.65-.79,5.64,5.64,0,0,1,.52-1c.62-.71,1.81-.45,2.59.09a8.39,8.39,0,0,0,2.33,1.59c.91.26,2.15-.46,1.88-1.36,1.31.18,3,.81,2.86,2.13a3.47,3.47,0,0,1-.47,1.17c-1.17,2.34,0,7.2,3.21,5.79,2.13-.92,1.41-5,4.41-5.09,1.44,0,2.66,1.29,4.1,1.21.55-.23.25-1.08-.2-1.49a5.55,5.55,0,0,0-5.31-1.15c0-1.7,2.09-3.16,1.45-4.72s-3.4-1.56-3.62-3.22a2.7,2.7,0,0,1,.32-1.38c.94-2.18,3.59-5.69.81-7.58a5,5,0,0,1-1-.71c-.82-.93-.06-2.35.69-3.33,1.36.1,2.12,1.54,2.9,2.67s2.43,2.1,3.39,1.13c.69-.69.58-2.06,1.48-2.45.42-.18.93-.06,1.32-.29.95-.55.11-2,.38-3.1.36-1.46,2.54-1.4,3.83-.6s2.55,2,4,1.79c.47-.08.91-.3,1.37-.42,1.44-.35,2.9.31,4.23,1,2.11,1,1.83-10,2.05-10.57,1.71-4.17,6.9-4.17,10.56-5.49a26.67,26.67,0,0,0,5.34-2.92c27.93,32.2,37.14,78,23.6,118.46a40.49,40.49,0,0,1-2.05,5.39c-2.11-2-5-5.82-8.28-5.63-4.17.26-4.32,6.18-8.72,5.66-.9-.48.14-1.84,0-2.85a3.63,3.63,0,0,0-.87-1.45c-.34-.46-.52-1.17-.09-1.55-.47-1-2-.81-3.07-.5a7.43,7.43,0,0,1-4,.23c-2.69-.75-4-3.65-5.59-5.95a37.4,37.4,0,0,0-4.58-5.17c.91.55,2.07-.51,2.16-1.57a11,11,0,0,0-.65-3.11c-.38-1.78,1.16-2.82,1-4.59-.2-2.19-1.64-4.41-.8-6.44,1-2.47,4.4-2.62,7.05-2.35.22-3.27-2-6.73-.47-9.64a8.45,8.45,0,0,1,2.64-2.65l6.19-4.61a4.5,4.5,0,0,0,2-2.41c.27-1.22-.51-2.41-1.24-3.42l-2.38-3.3a2.77,2.77,0,0,0-1.23-1.1,2.4,2.4,0,0,0-1.72.29,13,13,0,0,0-6.51,6.9,52.72,52.72,0,0,1-9.52-8.88c-.75,2.41-2.93,4.37-3.32,6.79" style="fill:#89264F;opacity:0.4;isolation:isolate"></path><path d="M302.3,185.51a4.83,4.83,0,0,0-3.54,2.13,20.7,20.7,0,0,0-.95,2.45,2.41,2.41,0,0,1-1.92,1.6c-1.12,0-1.86-1.12-2.37-2.12a3.62,3.62,0,0,1-.59-2.6,18.61,18.61,0,0,1,.95-1.75c.51-1.22-.1-2.57-.49-3.83s-.41-2.94.74-3.57c.76-.42,1.75-.2,2.53-.58,1.9-.92,1-4.09,2.62-5,2-1.06,4.24,1.19,5.32,2.8s1.39,3.75,1.8,5.62C307.57,186,306.78,184.86,302.3,185.51Z" style="fill:#89264F;opacity:0.4;isolation:isolate"></path><path d="M291.39,107.22c26.25-6.28,55.7-1.22,79.49,10.94.66.34,1.32.68,2,1,1.29,5.15-.52,12.69-7.37,10.72-.35.67-.05,1,0,1.76.09,1.13-1.36,1.73-2.48,1.63-3.7-.32-7.36-2.32-9,2-2,5.22,2,3.3,3.6,6.41a6.57,6.57,0,0,1,.35,1.47c.44,1.81,2.35,2.79,4.05,3.54a2.12,2.12,0,0,1,2.54-1.81,3.51,3.51,0,0,0,1.29.3c.95-.14,1-1.59.42-2.32s-1.59-1.07-2.29-1.74-.93-2-.08-2.45a1.71,1.71,0,0,1,1.18,0,5.2,5.2,0,0,1,3.54,3.31,2.1,2.1,0,0,1,3.43,2.22c-.46,1.29-2.13,2.5-1.35,3.62a3,3,0,0,0-3.11-.55c-4.05,1.65-6.29,9.62-12.28,5a29.54,29.54,0,0,0-2.79-2.34,2.78,2.78,0,0,0-3.37.13c-.34-2.73-4.12-4.16-4.19-6.91a2.92,2.92,0,0,1,2.2-2.84,1.45,1.45,0,0,0,.61-.22c.33-.29.2-.83.35-1.24.25-.72,1.25-.87,1.69-1.49.61-.87-.16-2-1-2.75s-1.73-1.63-1.44-2.66c.11-.34.35-.64.45-1a1.84,1.84,0,0,0-.83-1.89,5.42,5.42,0,0,0-2.06-.7c-.62.14-.8,1-.63,1.56a11.63,11.63,0,0,1,.62,1.77c0,.35-3.73,5.51-3.23,5.58-2.37-.35-6.7-2.47-7.39,1-.25,1.22-.2,2.64-1.13,3.46,1.61.34,3.23.69,4.83,1.07.11.63-.78,1-1.41.81s-1.27-.51-1.87-.27a2,2,0,0,0-.91,1l-2.25,3.8c-.82,1.37-1.85,2.89-3.43,3.08-1.8.21-3.31-1.49-3.83-3.23a1.68,1.68,0,0,0-.63-1.1,1.63,1.63,0,0,0-1.15,0,6.6,6.6,0,0,1-5.89-1.11,4.29,4.29,0,0,1-.87-5.59c.48-.64,1.23-1.33.93-2.07-.18-.44-.71-.75-.65-1.22s.89-.61,1.48-.71a2.36,2.36,0,0,0,1.93-2.22c0-.55-3.06-4.18-3.82-4.2-1.75-.05-3.44,3.81-4.37,5.16a2.37,2.37,0,0,1-1.4,1.19c-1,.16-1.7-.91-1.89-1.88a6.66,6.66,0,0,0-.72-2.83,4.05,4.05,0,0,0-1.36-1,4.34,4.34,0,0,0-3.29-.8c-.51.16-.95.52-1.47.69a3.35,3.35,0,0,1-3.29-1.24c-.84-.91-1.44-2-2.36-2.87-1.94-1.78-5.08-2-6.6-4.21-.74-1-.72-2.85.5-3.24,1-.33,2.47.56,3.15-.3s-.91-3.33-.88-4.34c0-.8,1.31-1.62,1.2-3.18C292.77,109.63,291.49,108.59,291.39,107.22Z" style="fill:#89264F;opacity:0.4;isolation:isolate"></path><path d="M343.65,331.14c1.73-.2,3.43.06,4.8-1.48,1.86-2.09,1.09-3.79-1.77-4.14a1.18,1.18,0,0,1-.71-.25c-.57-.58.45-1.35,1.2-1.68a5.52,5.52,0,0,0,3-4.37c.06-.43,6.89,2.92,7.42,3.71,1.86,2.78-2.72,7.44.78,8.07,1.3-2,2.32-4.24,3.44-6.37l3.14,1.49c-.78-.37,1.72-4.07,2.2-4.36,1.88-1.14,4.64,1.19,6-2.11,1.72-4.17-5.58-9-7-3.94a22.56,22.56,0,0,1-8.16-2.94c-.48.78-.95,1.58-1.42,2.36a2.45,2.45,0,0,1-2.07-.89,6.88,6.88,0,0,1,3.94-6.5c-.18-1.81,1.8-3,3.48-3.7-1.75-3.54,1.8-8.37,5.7-7.76s5.81,6.3,3.06,9.13a8.83,8.83,0,0,1,3.34,4.28,11.55,11.55,0,0,1,12.29-5.34c2.34.55,4.78,1.85,7,1,1-.38,1.8-1.16,2.77-1.61,2.2-1,4.74-.1,6.94.89q2.21,1,4.33,2.15A122,122,0,0,1,335.12,347a4.92,4.92,0,0,1-2-1.47c-.87-1.28-.45-3,0-4.49,1.77-5.78,4-8.78,10-9.83Z" style="fill:#89264F;opacity:0.4;isolation:isolate"></path><path d="M242,288.62c-2.13-.86-4.34,1.16-5.81,3l-6.62,8.2c2.82,3.68.15,8.06-3.19,10.24a122,122,0,0,1-19.54-138.82q2.76-5.4,6-10.4h.36c3.67.14,4.68,3.87,6.17,6.45.33.58,5.17,7.1,5.71,6.27a32.35,32.35,0,0,0-4,8.71,1,1,0,0,0,0,.71c.27.51,1,.18,1.46-.23,1-1,1.89-2.27,3-3.25a5,5,0,0,1,4-1.45c1.45.26,2.58,1.43,4,1.93a6.07,6.07,0,0,0,5.16-.86,20.1,20.1,0,0,0,3.8-3.57c-.24,4.19,4.72,4.11,5.57,8,.28,1.26.49,3,1.78,3.11s2.23-1.55,3.38-1.12c.81.3.93,1.42.65,2.23a9.16,9.16,0,0,0-.86,2.41,2.23,2.23,0,0,0,2.28,2.25c1.08-.07,1.93-.91,2.87-1.46s2.39-.65,2.87.32a1.72,1.72,0,0,1,.15.74c0,1.84-1.76,3.15-3.44,3.91s-3.57,1.39-4.52,3a1.51,1.51,0,0,0,2.07.58,2.55,2.55,0,0,1,.72-.43c.6-.13,1,.52,1.34,1.05a11,11,0,0,0,6.68,5.13l5.7-9.6c.76.36,1.23.55,1.91-.07,1.22,3.69,2.14,7.46,3.73,11.05a2.29,2.29,0,0,1,.3,1.36c-.11.47-.51.83-.71,1.28-.66,1.48,1.07,2.86,2.53,3.57.3.45-.3,1-.84,1a12.5,12.5,0,0,0-1.6-.14,2.07,2.07,0,0,0-1.4,1.79,5.36,5.36,0,0,0,4.41,6.07,1.56,1.56,0,0,0,1-.11c.65-.35.67-1.24.94-1.92,1.07-2.69,3.51-.66,4.42.7,1.22,1.86.87,4.9.24,6.88-.72,2.32-6.45,17.24-.73,17.74a2.43,2.43,0,0,0,1.5-.49c1.35-.93,2.1-2.49,3.3-3.6s3.4-1.53,4.3-.17c.36.55.41,1.25.73,1.82.88,1.59,3.36,1.52,4.49,3a15.65,15.65,0,0,1,1.05,2.27c.39.74,1.29,1.38,2,1s.8-1.74,1.58-2.27,2,.28,2.08,1.27a2.55,2.55,0,0,1-1.64,2.25,3.36,3.36,0,0,0-1.33.75c-.59.71-.17,1.77.26,2.59.68,1.3,1.37,2.6,2.06,3.9a2.16,2.16,0,0,1-2.28.68c-.82-.18-1.58-.58-2.42-.72-4-.64-6.66,4.46-10.64,1.12a2.45,2.45,0,0,0-1.27-3.71c-1.86-.45-4.15,1.35-5.54,0-.49-.45-.66-1.17-1.17-1.61-1.39-1.2-3.44.83-4.43,1.64-3.27,2.68-1.18,4.29-2.88,7.32-.77,1.39-2.43,2-3.41,3.29s-1.14,2.7-2,3.89c-2.31,3.29-5.87-1.29-7.73-2.77.08,2.59-2.86,4.15-5.4,4.59-3.92.67-3.34.74-5.29,3.63a2.52,2.52,0,0,1-2.32,1.22c-1.59-.22-2.21-2.23-3.55-3.1-.65-.42-1.45-.57-2.06-1-1.62-1.22-1.1-3.71-1.54-5.68a5.54,5.54,0,0,0-3.31-3.87,11.32,11.32,0,0,0-1.44,2.73l2,3.38a7.68,7.68,0,0,1,1.29,3.2,6.18,6.18,0,0,0,.18,1.93c.48,1.19,2,1.43,3.21,1.95,2.86,1.26,6.48,5.34,8.7,7.6,2.36,2.42,2.31,4.95,4.46,7.22a.94.94,0,0,1-.35,1.39,2.13,2.13,0,0,1-1.61,0,5.77,5.77,0,0,1-3-2.26c.93,1.39-4.53,2.56-5.3,2.36-1.26-.34-2.34-2-3.46-2.64-2.79-1.63-4.74-1.92-4.48,2.16.1,1.56.15,3.51-1.23,4.24a2,2,0,0,0-2.53-.24,4.23,4.23,0,0,0-1.6,2.19,2.74,2.74,0,0,0-.19,1.82,4.59,4.59,0,0,1,.36.93c.11,1.08-1.44,1.38-2.51,1.26" style="fill:#fff;opacity:0.7000000000000001;isolation:isolate"></path><path d="M401.09,214c-.54-1.13-2.08-1.25-3.33-1.12s-2.7.29-3.55-.63l2-3.9a1.1,1.1,0,0,0,.16-.78,1,1,0,0,0-.62-.52l-2.55-1.18c-1.09.4.36,2.33-.43,3.18-.35.37-.94.3-1.46.31-4.36.06-4.18,5-3.71,7.87.55,3.33-1.27,6.54-3,9.44-.63,1-1.38,2.15-2.56,2.42s-2.31-.38-3.49-.61c-2-.41-4.1.51-6.17.46-7.27-.16-7.86-8.33-3.44-12.23,2.29-2,2.46-1.32,3.3-4.31.36-1.25,1.42-2.38.65-3.76a2.33,2.33,0,0,0-3.95-.06c-.87,1.44-1.94,2.67-2.06,4.38-1.38-1.52-3.62-2.18-5.49-3.15a2.76,2.76,0,0,1-4.69.56c.48-.82.86-2.1,0-2.53a1.5,1.5,0,0,0-.81-.11c-1.16.06-2.31.35-3.47.3-1.79-.08-5.75-2.54-7.4-.94-.29.28-.48.65-.79.92a1.81,1.81,0,0,1-2.35-.17,2.45,2.45,0,0,1-.52-2.41c.16-.55.49-1,.61-1.61.67-3-3.08-2.32-3.92-3.65-.4-.64-.45-6.34-.22-6.9a6.83,6.83,0,0,1-6.06.06c-2-1.18-2.06-3.3-1.48-5.56s1.91-4.94,2.25-6.73c.18-1,.49-2.08,1.41-2.41,1.15-.42,2.56.7,3.58,0a3.18,3.18,0,0,0,.76-.87,4.31,4.31,0,0,1,6-.57c.85-.09,1.34-1,1.77-1.73s1.25-1.52,2-1.18.71,1.75.24,2.62a11.46,11.46,0,0,1-1.79,2.43,3.58,3.58,0,0,0-1.25,1.83,2.9,2.9,0,0,0,.43,1.63,6.62,6.62,0,0,0,2.63,3.08,2.82,2.82,0,0,0,3.65-.79,5.64,5.64,0,0,1,.52-1c.62-.71,1.81-.45,2.59.09a8.39,8.39,0,0,0,2.33,1.59c.91.26,2.15-.46,1.88-1.36,1.31.18,3,.81,2.86,2.13a3.47,3.47,0,0,1-.47,1.17c-1.17,2.34,0,7.2,3.21,5.79,2.13-.92,1.41-5,4.41-5.09,1.44,0,2.66,1.29,4.1,1.21.55-.23.25-1.08-.2-1.49a5.55,5.55,0,0,0-5.31-1.15c0-1.7,2.09-3.16,1.45-4.72s-3.4-1.56-3.62-3.22a2.7,2.7,0,0,1,.32-1.38c.94-2.18,3.59-5.69.81-7.58a5,5,0,0,1-1-.71c-.82-.93-.06-2.35.69-3.33,1.36.1,2.12,1.54,2.9,2.67s2.43,2.1,3.39,1.13c.69-.69.58-2.06,1.48-2.45.42-.18.93-.06,1.32-.29.95-.55.11-2,.38-3.1.36-1.46,2.54-1.4,3.83-.6s2.55,2,4,1.79c.47-.08.91-.3,1.37-.42,1.44-.35,2.9.31,4.23,1,2.11,1,1.83-10,2.05-10.57,1.71-4.17,6.9-4.17,10.56-5.49a26.67,26.67,0,0,0,5.34-2.92c27.93,32.2,37.14,78,23.6,118.46a40.49,40.49,0,0,1-2.05,5.39c-2.11-2-5-5.82-8.28-5.63-4.17.26-4.32,6.18-8.72,5.66-.9-.48.14-1.84,0-2.85a3.63,3.63,0,0,0-.87-1.45c-.34-.46-.52-1.17-.09-1.55-.47-1-2-.81-3.07-.5a7.43,7.43,0,0,1-4,.23c-2.69-.75-4-3.65-5.59-5.95a37.4,37.4,0,0,0-4.58-5.17c.91.55,2.07-.51,2.16-1.57a11,11,0,0,0-.65-3.11c-.38-1.78,1.16-2.82,1-4.59-.2-2.19-1.64-4.41-.8-6.44,1-2.47,4.4-2.62,7.05-2.35.22-3.27-2-6.73-.47-9.64a8.45,8.45,0,0,1,2.64-2.65l6.19-4.61a4.5,4.5,0,0,0,2-2.41c.27-1.22-.51-2.41-1.24-3.42l-2.38-3.3a2.77,2.77,0,0,0-1.23-1.1,2.4,2.4,0,0,0-1.72.29,13,13,0,0,0-6.51,6.9,52.72,52.72,0,0,1-9.52-8.88c-.75,2.41-2.93,4.37-3.32,6.79" style="fill:#fff;opacity:0.7000000000000001;isolation:isolate"></path><path d="M302.3,185.51a4.83,4.83,0,0,0-3.54,2.13,20.7,20.7,0,0,0-.95,2.45,2.41,2.41,0,0,1-1.92,1.6c-1.12,0-1.86-1.12-2.37-2.12a3.62,3.62,0,0,1-.59-2.6,18.61,18.61,0,0,1,.95-1.75c.51-1.22-.1-2.57-.49-3.83s-.41-2.94.74-3.57c.76-.42,1.75-.2,2.53-.58,1.9-.92,1-4.09,2.62-5,2-1.06,4.24,1.19,5.32,2.8s1.39,3.75,1.8,5.62C307.57,186,306.78,184.86,302.3,185.51Z" style="fill:#fff;opacity:0.7000000000000001;isolation:isolate"></path><path d="M291.39,107.22c26.25-6.28,55.7-1.22,79.49,10.94.66.34,1.32.68,2,1,1.29,5.15-.52,12.69-7.37,10.72-.35.67-.05,1,0,1.76.09,1.13-1.36,1.73-2.48,1.63-3.7-.32-7.36-2.32-9,2-2,5.22,2,3.3,3.6,6.41a6.57,6.57,0,0,1,.35,1.47c.44,1.81,2.35,2.79,4.05,3.54a2.12,2.12,0,0,1,2.54-1.81,3.51,3.51,0,0,0,1.29.3c.95-.14,1-1.59.42-2.32s-1.59-1.07-2.29-1.74-.93-2-.08-2.45a1.71,1.71,0,0,1,1.18,0,5.2,5.2,0,0,1,3.54,3.31,2.1,2.1,0,0,1,3.43,2.22c-.46,1.29-2.13,2.5-1.35,3.62a3,3,0,0,0-3.11-.55c-4.05,1.65-6.29,9.62-12.28,5a29.54,29.54,0,0,0-2.79-2.34,2.78,2.78,0,0,0-3.37.13c-.34-2.73-4.12-4.16-4.19-6.91a2.92,2.92,0,0,1,2.2-2.84,1.45,1.45,0,0,0,.61-.22c.33-.29.2-.83.35-1.24.25-.72,1.25-.87,1.69-1.49.61-.87-.16-2-1-2.75s-1.73-1.63-1.44-2.66c.11-.34.35-.64.45-1a1.84,1.84,0,0,0-.83-1.89,5.42,5.42,0,0,0-2.06-.7c-.62.14-.8,1-.63,1.56a11.63,11.63,0,0,1,.62,1.77c0,.35-3.73,5.51-3.23,5.58-2.37-.35-6.7-2.47-7.39,1-.25,1.22-.2,2.64-1.13,3.46,1.61.34,3.23.69,4.83,1.07.11.63-.78,1-1.41.81s-1.27-.51-1.87-.27a2,2,0,0,0-.91,1l-2.25,3.8c-.82,1.37-1.85,2.89-3.43,3.08-1.8.21-3.31-1.49-3.83-3.23a1.68,1.68,0,0,0-.63-1.1,1.63,1.63,0,0,0-1.15,0,6.6,6.6,0,0,1-5.89-1.11,4.29,4.29,0,0,1-.87-5.59c.48-.64,1.23-1.33.93-2.07-.18-.44-.71-.75-.65-1.22s.89-.61,1.48-.71a2.36,2.36,0,0,0,1.93-2.22c0-.55-3.06-4.18-3.82-4.2-1.75-.05-3.44,3.81-4.37,5.16a2.37,2.37,0,0,1-1.4,1.19c-1,.16-1.7-.91-1.89-1.88a6.66,6.66,0,0,0-.72-2.83,4.05,4.05,0,0,0-1.36-1,4.34,4.34,0,0,0-3.29-.8c-.51.16-.95.52-1.47.69a3.35,3.35,0,0,1-3.29-1.24c-.84-.91-1.44-2-2.36-2.87-1.94-1.78-5.08-2-6.6-4.21-.74-1-.72-2.85.5-3.24,1-.33,2.47.56,3.15-.3s-.91-3.33-.88-4.34c0-.8,1.31-1.62,1.2-3.18C292.77,109.63,291.49,108.59,291.39,107.22Z" style="fill:#fff;opacity:0.7000000000000001;isolation:isolate"></path><path d="M343.65,331.14c1.73-.2,3.43.06,4.8-1.48,1.86-2.09,1.09-3.79-1.77-4.14a1.18,1.18,0,0,1-.71-.25c-.57-.58.45-1.35,1.2-1.68a5.52,5.52,0,0,0,3-4.37c.06-.43,6.89,2.92,7.42,3.71,1.86,2.78-2.72,7.44.78,8.07,1.3-2,2.32-4.24,3.44-6.37l3.14,1.49c-.78-.37,1.72-4.07,2.2-4.36,1.88-1.14,4.64,1.19,6-2.11,1.72-4.17-5.58-9-7-3.94a22.56,22.56,0,0,1-8.16-2.94c-.48.78-.95,1.58-1.42,2.36a2.45,2.45,0,0,1-2.07-.89,6.88,6.88,0,0,1,3.94-6.5c-.18-1.81,1.8-3,3.48-3.7-1.75-3.54,1.8-8.37,5.7-7.76s5.81,6.3,3.06,9.13a8.83,8.83,0,0,1,3.34,4.28,11.55,11.55,0,0,1,12.29-5.34c2.34.55,4.78,1.85,7,1,1-.38,1.8-1.16,2.77-1.61,2.2-1,4.74-.1,6.94.89q2.21,1,4.33,2.15A122,122,0,0,1,335.12,347a4.92,4.92,0,0,1-2-1.47c-.87-1.28-.45-3,0-4.49,1.77-5.78,4-8.78,10-9.83Z" style="fill:#fff;opacity:0.7000000000000001;isolation:isolate"></path><path d="M321.3,136.92l5.3,5.42L332,137a7.58,7.58,0,0,0,.12-10.72h0a7.57,7.57,0,0,0-10.72-.12h0A7.58,7.58,0,0,0,321.3,136.92Zm3.22-3.15a3.08,3.08,0,1,1,4.35,0A3.09,3.09,0,0,1,324.52,133.77Z" style="fill:#89264F"></path><path d="M321.42,126.2a7.56,7.56,0,0,1,5.43-2.16l-.05,4.5a3.13,3.13,0,0,0-2.24.87,3.09,3.09,0,0,0,2.17,5.29l-.08,7.59,0,.05-5.3-5.42A7.58,7.58,0,0,1,321.42,126.2Z" style="opacity:0.2;isolation:isolate"></path><path d="M223.45,290.6l5.3,5.42,5.42-5.3a7.58,7.58,0,0,0,.12-10.72h0a7.58,7.58,0,0,0-10.72-.12h0A7.58,7.58,0,0,0,223.45,290.6Zm3.22-3.14a3.08,3.08,0,1,1,4.35.05A3.09,3.09,0,0,1,226.67,287.46Z" style="fill:#89264F"></path><path d="M223.57,279.88a7.6,7.6,0,0,1,5.43-2.16l-.05,4.5a3.08,3.08,0,0,0-2.28,5.24,3.06,3.06,0,0,0,2.21.92L228.8,296l-.05,0-5.3-5.42A7.58,7.58,0,0,1,223.57,279.88Z" style="opacity:0.2;isolation:isolate"></path><path d="M219.72,190.42l5.3,5.42,5.43-5.3a7.59,7.59,0,0,0,.12-10.72h0a7.58,7.58,0,0,0-10.72-.12h0A7.58,7.58,0,0,0,219.72,190.42Zm3.22-3.14a3.08,3.08,0,1,1,4.36.05A3.08,3.08,0,0,1,222.94,187.28Z" style="fill:#89264F"></path><path d="M219.85,179.7a7.55,7.55,0,0,1,5.43-2.16l-.05,4.5a3.08,3.08,0,1,0-.07,6.16l-.09,7.59,0,.05-5.29-5.42A7.57,7.57,0,0,1,219.85,179.7Z" style="opacity:0.2;isolation:isolate"></path><path d="M358.92,298.58l5.3,5.42,5.42-5.3a7.57,7.57,0,0,0,.12-10.72h0a7.58,7.58,0,0,0-10.72-.12h0A7.59,7.59,0,0,0,358.92,298.58Zm3.22-3.14a3.08,3.08,0,1,1,4.36.05A3.08,3.08,0,0,1,362.14,295.44Z" style="fill:#89264F"></path><path d="M359,287.86a7.61,7.61,0,0,1,5.44-2.16l-.05,4.51a3,3,0,0,0-2.24.87,3.08,3.08,0,0,0,2.17,5.28l-.09,7.59,0,.05-5.3-5.42A7.58,7.58,0,0,1,359,287.86Z" style="opacity:0.2;isolation:isolate"></path><path d="M417.08,203.37l5.3,5.42,5.42-5.3a7.58,7.58,0,0,0,.12-10.72h0a7.59,7.59,0,0,0-10.72-.12h0A7.58,7.58,0,0,0,417.08,203.37Zm3.22-3.14a3.08,3.08,0,1,1,4.35.05A3.09,3.09,0,0,1,420.3,200.23Z" style="fill:#89264F"></path><path d="M417.2,192.65a7.55,7.55,0,0,1,5.43-2.15l-.05,4.5a3,3,0,0,0-2.24.87,3.09,3.09,0,0,0,0,4.36,3,3,0,0,0,2.21.92l-.08,7.6-.05,0-5.3-5.42A7.58,7.58,0,0,1,417.2,192.65Z" style="opacity:0.2;isolation:isolate"></path><path d="M344.69,191.66l5.3,5.42,5.42-5.3a7.58,7.58,0,0,0,.12-10.72h0a7.58,7.58,0,0,0-10.72-.13h0A7.59,7.59,0,0,0,344.69,191.66Zm3.22-3.15a3.08,3.08,0,1,1,4.36.05A3.08,3.08,0,0,1,347.91,188.51Z" style="fill:#89264F"></path><path d="M344.81,180.93a7.55,7.55,0,0,1,5.43-2.15l-.05,4.5a3,3,0,0,0-2.23.87,3.08,3.08,0,0,0,0,4.36,3,3,0,0,0,2.21.92L350,197l-.05.05-5.3-5.42A7.59,7.59,0,0,1,344.81,180.93Z" style="opacity:0.2;isolation:isolate"></path><polygon points="315.08 162.3 320.21 154.31 326.72 162.3 315.08 162.3" style="fill:#89264F"></polygon><polygon points="315.08 162.3 320.21 154.31 326.72 162.3 315.08 162.3" style="fill:#fff;opacity:0.8"></polygon><polygon points="320.12 155.44 319.6 163.41 320.9 163.41 320.12 155.44" style="opacity:0.2;isolation:isolate"></polygon><path d="M307.59,161.37l4.63,6h17.19l4.69-7.83A158.19,158.19,0,0,1,307.59,161.37Z" style="fill:#fff"></path><polygon points="280.9 281.26 275.77 273.27 269.26 281.26 280.9 281.26" style="fill:#89264F"></polygon><polygon points="280.9 281.26 275.77 273.27 269.26 281.26 280.9 281.26" style="fill:#fff;opacity:0.8"></polygon><polygon points="275.86 274.4 276.38 282.38 275.08 282.38 275.86 274.4" style="opacity:0.2;isolation:isolate"></polygon><path d="M288.39,280.33l-4.62,6h-17.2l-4.69-7.84A157,157,0,0,0,288.39,280.33Z" style="fill:#fff"></path><polygon points="391.35 293.73 396.47 285.74 402.99 293.73 391.35 293.73" style="fill:#89264F"></polygon><polygon points="391.35 293.73 396.47 285.74 402.99 293.73 391.35 293.73" style="fill:#fff;opacity:0.8"></polygon><polygon points="396.39 286.87 395.87 294.85 397.17 294.85 396.39 286.87" style="opacity:0.2;isolation:isolate"></polygon><path d="M383.85,292.8l4.63,6h17.2l4.69-7.84A157.14,157.14,0,0,1,383.85,292.8Z" style="fill:#fff"></path><path d="M321.29,173l-2-.42c.33-1.58.59-2.46.6-2.5l1.92.56S321.61,171.48,321.29,173Z" style="fill:#89264F"></path><path d="M385.53,280.08a33.29,33.29,0,0,0-2.94-4l1.53-1.28a34,34,0,0,1,3.12,4.28Zm-8.62-9.81c-1.17-1.06-2.43-2.15-3.87-3.34l1.27-1.54c1.46,1.21,2.75,2.32,3.94,3.39Zm-10.31-8.43q-2-1.54-4.1-3.12l1.21-1.59,4.11,3.12Zm-10.67-8.12c-1.35-1.05-2.71-2.11-4.07-3.2l1.25-1.56c1.35,1.08,2.7,2.13,4.05,3.17Zm-10.44-8.5c-1.36-1.18-2.65-2.36-3.85-3.48l1.37-1.46c1.18,1.11,2.46,2.26,3.79,3.43Zm-9.69-9.41c-1.19-1.33-2.33-2.66-3.37-4l1.57-1.24c1,1.28,2.12,2.58,3.29,3.88ZM327.64,225c-.91-1.48-1.76-3-2.55-4.57l1.79-.9c.76,1.5,1.59,3,2.46,4.43Zm-5.83-12.26c-.58-1.63-1.1-3.31-1.55-5l1.93-.52c.44,1.63.95,3.26,1.5,4.84Zm-3.25-13.17c-.25-1.7-.45-3.45-.58-5.19l2-.16c.13,1.7.32,3.4.57,5Zm1.22-13.48-2-.06c.05-1.73.15-3.48.32-5.2l2,.18C319.93,182.68,319.83,184.39,319.78,186.08Z" style="fill:#89264F"></path><path d="M390.33,289.78l-2-.08a14,14,0,0,0-.1-2.33l2-.25A17,17,0,0,1,390.33,289.78Z" style="fill:#89264F"></path><path d="M403.53,218.27l-1.74-1c.77-1.35,1.14-2.13,1.14-2.14l1.81.86S404.34,216.84,403.53,218.27Z" style="fill:#89264F"></path><path d="M300.65,281.93l-.34-2c1.58-.26,3.14-.54,4.67-.84l.38,2C303.81,281.38,302.24,281.67,300.65,281.93Zm12.21-2.44-.46-1.95c1.56-.36,3.09-.74,4.6-1.14l.51,1.94C316,278.74,314.43,279.12,312.86,279.49Zm12-3.25-.59-1.91c1.53-.47,3-1,4.51-1.46l.64,1.89Q327.21,275.52,324.88,276.24Zm11.77-4.1-.73-1.86c1.47-.57,2.94-1.17,4.39-1.79l.78,1.84C339.63,271,338.13,271.56,336.65,272.14Zm11.43-5-.87-1.8c1.42-.69,2.85-1.41,4.23-2.13l.92,1.77C351,265.73,349.53,266.46,348.08,267.16Zm11-5.89-1-1.72q2.07-1.23,4-2.48l1.07,1.69C361.84,259.6,360.46,260.44,359.07,261.27Zm10.46-6.81-1.16-1.63c1.28-.91,2.56-1.86,3.8-2.82l1.22,1.59C372.13,252.57,370.83,253.53,369.53,254.46Zm9.81-7.71-1.3-1.52c1.19-1,2.38-2.09,3.52-3.15l1.36,1.46C381.76,244.62,380.56,245.7,379.34,246.75Zm9.05-8.61L387,236.76c1.08-1.14,2.16-2.31,3.19-3.48l1.5,1.32C390.59,235.79,389.5,237,388.39,238.14Zm8.15-9.48L395,227.44c1-1.26,1.91-2.54,2.79-3.81l1.64,1.15C398.49,226.07,397.53,227.37,396.54,228.66Z" style="fill:#89264F"></path><path d="M290.55,283.37l-.24-2,2.47-.31.26,2Z" style="fill:#89264F"></path><path d="M231.83,149.29c-.85-.84-1.4-1.47-1.7-1.81l1.45-1.38,0,.06c.28.32.81.92,1.6,1.71Z" style="fill:#89264F"></path><path d="M289.35,167l0-2c1.65,0,3.35-.08,5-.16l.09,2C292.74,166.87,291,166.92,289.35,167Zm-8.17-.12c-1.72-.08-3.44-.19-5.11-.33l.18-2c1.64.15,3.33.26,5,.33ZM268,165.49c-1.71-.28-3.4-.6-5-1l.43-1.95c1.6.35,3.26.66,4.93.93Zm-13-3.08c-1.65-.53-3.28-1.11-4.84-1.73l.74-1.86c1.52.61,3.1,1.17,4.71,1.69Zm-12.3-5.22c-1.54-.85-3-1.75-4.41-2.68l1.12-1.66c1.34.9,2.77,1.77,4.26,2.59Z" style="fill:#89264F"></path><path d="M302.63,166.18l-.2-2,2.47-.26.23,2Z" style="fill:#89264F"></path><path d="M275.88,292.85c-.6-1.37-1-2.17-1-2.17l1.76-1s.47.87,1.1,2.34Z" style="fill:#89264F"></path><path d="M276.69,330.88,275,329.82a33.12,33.12,0,0,0,2.26-4.34l1.84.79A34.87,34.87,0,0,1,276.69,330.88Zm4.74-12.58-2-.33a37.31,37.31,0,0,0,.48-4.9l2,.07A39.55,39.55,0,0,1,281.43,318.3Zm-2-13.1c-.25-1.6-.58-3.23-1-4.85l1.93-.5a50.94,50.94,0,0,1,1.05,5Z" style="fill:#89264F"></path><path d="M269.65,339.13l-1.33-1.5c.61-.54,1.21-1.1,1.77-1.67l1.42,1.41C270.92,338,270.29,338.56,269.65,339.13Z" style="fill:#89264F"></path><path d="M338.81,165.39c-1.6,0-2.52-.07-2.55-.07l.12-2s.9.06,2.44.07Z" style="fill:#89264F"></path><path d="M347.65,165l-.18-2c1.81-.15,3.63-.36,5.39-.62l.28,2C351.34,164.65,349.49,164.86,347.65,165Zm14.19-2.31-.48-1.94c1.78-.45,3.53-1,5.2-1.49l.62,1.9C365.46,161.74,363.67,162.25,361.84,162.71Zm13.58-4.86-.88-1.79a51.24,51.24,0,0,0,4.69-2.61l1.06,1.69A50.54,50.54,0,0,1,375.42,157.85Zm11.94-8.19L386,148.22a38,38,0,0,0,3.59-3.94l1.57,1.24A38.71,38.71,0,0,1,387.36,149.66Z" style="fill:#89264F"></path><path d="M395.84,137.85,394,137c.34-.72.66-1.48,1-2.24l1.87.72C396.53,136.29,396.19,137.09,395.84,137.85Z" style="fill:#89264F"></path><path d="M334.22,203.46l-1.8-.87a19.34,19.34,0,0,0,.93-2.18l1.9.64A21.35,21.35,0,0,1,334.22,203.46Z" style="fill:#89264F"></path><path d="M317.29,215.51a19.85,19.85,0,0,1-5.15-.82l.56-1.92a17.63,17.63,0,0,0,4.63.74Zm8.13-2-1-1.74a16.59,16.59,0,0,0,3.68-2.88l1.43,1.4A18.72,18.72,0,0,1,325.42,213.46Zm-20.72-2.2c-.85-.53-1.72-1.11-2.59-1.73-.53-.38-1.06-.76-1.57-1.15l1.2-1.6c.5.37,1,.75,1.53,1.12.83.6,1.67,1.15,2.48,1.65Zm-10.39-7.94c-1.21-1-2.42-2.16-3.71-3.36L292,198.5c1.26,1.19,2.45,2.28,3.64,3.32Zm-9.41-8.94-.77-.77-2.75-2.74,1.41-1.42c.9.89,1.82,1.8,2.75,2.75l.77.76Zm-9.28-8.86a41.64,41.64,0,0,0-3.88-2.91l1.09-1.67A41.39,41.39,0,0,1,276.9,184Zm-10.78-6a18,18,0,0,0-4.66-.47l-.06-2a20.3,20.3,0,0,1,5.18.52Z" style="fill:#89264F"></path><path d="M250.4,181.49l-.8-1.84c.81-.34,1.61-.66,2.39-.94l.67,1.89C251.92,180.86,251.16,181.16,250.4,181.49Z" style="fill:#89264F"></path><path d="M352,305.66l-.6-1.91c1.54-.48,2.45-.72,2.45-.72l.49,1.94S353.41,305.2,352,305.66Z" style="fill:#89264F"></path><path d="M314.26,335.78l-1.94-.49a27.35,27.35,0,0,1,1.71-4.81l1.81.84A25.49,25.49,0,0,0,314.26,335.78Zm5.65-10.88-1.54-1.26a40.54,40.54,0,0,1,3.43-3.7l1.38,1.45A40.88,40.88,0,0,0,319.91,324.9Zm9.27-8.38L328,314.88c1.33-.93,2.74-1.84,4.21-2.71l1,1.72C331.83,314.74,330.46,315.62,329.18,316.52Zm11-6.27-.85-1.81c1.48-.69,3-1.36,4.56-2l.75,1.85C343.1,308.92,341.6,309.57,340.15,310.25Z" style="fill:#89264F"></path><path d="M311.86,346c-.13-.86-.22-1.73-.27-2.57l2-.12c.05.79.13,1.59.25,2.4Z" style="fill:#89264F"></path><path d="M310.11,141.63l-.13-2c1.51-.1,2.42-.22,2.43-.22l.26,2S311.69,141.53,310.11,141.63Z" style="fill:#89264F"></path><path d="M301.8,141.65c-1.79-.11-3.54-.3-5.19-.55l.3-2c1.6.25,3.28.42,5,.53ZM288.47,139a27.46,27.46,0,0,1-4.78-2.28l1-1.71a27.37,27.37,0,0,0,4.45,2.12Zm-11.09-8a19.21,19.21,0,0,1-2.42-4.81l1.9-.64a16.84,16.84,0,0,0,2.16,4.3Z" style="fill:#89264F"></path><path d="M275.8,117.79l-2-.06c0-.84.09-1.7.18-2.57l2,.21C275.88,116.18,275.83,117,275.8,117.79Z" style="fill:#89264F"></path></g></svg>